# 3ds Max Wavefront OBJ Exporter v0.97b - (c)2007 guruware
# 创建的文件:13.01.2019 02:03:25

mtllib smallstone.mtl

#
# object Cube_Cube_001
#

v  -43.7535 250.6633 -228.7012
v  -42.0255 244.9361 -231.4697
v  -43.8897 245.1349 -221.8672
v  -47.4327 248.4382 -215.5621
v  -41.8855 253.5819 -218.9951
v  -40.0522 253.2526 -228.6420
v  -35.6977 254.7077 -232.5799
v  -37.1768 252.7535 -235.8746
v  -37.5182 247.0353 -235.1887
v  -35.9343 254.1016 -218.2084
v  -32.3425 256.6219 -224.4143
v  -30.7116 251.2682 -218.7199
v  -26.3498 253.3804 -222.0840
v  -26.0143 253.3000 -227.9735
v  -29.4117 256.9821 -231.0043
v  -25.8473 245.9985 -223.4498
v  -31.0651 245.4992 -218.0513
v  -32.8069 242.4376 -221.7224
v  -29.4652 240.2500 -226.5486
v  -28.3320 243.5317 -231.2948
v  -24.7435 248.1583 -230.5721
v  -36.0878 240.8368 -229.7815
v  -38.5371 243.1316 -221.9383
v  -32.5087 243.9296 -235.4424
v  -29.8873 250.9804 -235.2825
v  -39.3513 247.2085 -216.3493
# 26 vertices

vn -0.9244 -0.2874 -0.2509
vn -0.6591 0.7457 -0.0974
vn -0.5320 0.8036 -0.2669
vn -0.7084 0.0424 -0.7046
vn -0.2854 0.9578 0.0347
vn 0.3005 0.7363 0.6062
vn 0.5267 0.8355 0.1566
vn -0.3451 0.9354 -0.0775
vn 0.6792 -0.0312 0.7333
vn 0.4875 -0.6988 0.5235
vn 0.8335 -0.5448 -0.0927
vn 0.9871 0.1001 0.1252
vn -0.1707 -0.9508 0.2584
vn -0.4764 -0.8792 0.0079
vn -0.3476 -0.6606 -0.6654
vn 0.2183 -0.8731 -0.4359
vn 0.0102 -0.0435 -0.9990
vn 0.0920 0.6746 -0.7325
vn 0.7630 0.3780 -0.5243
vn 0.6128 -0.2697 -0.7428
vn -0.0699 -0.7867 0.6134
vn 0.2037 0.1330 0.9700
vn 0.0198 0.3900 0.9206
vn -0.1778 -0.8640 0.4710
# 24 vertex normals

vt 0.0000 0.0000 0.0000
# 1 texture coords

o Cube_Cube_001
g Cube_Cube_001
usemtl stone_Stein
s 1
f 1/1/1 2/1/1 3/1/1 4/1/1 
f 1/1/2 4/1/2 5/1/2 6/1/2 
f 6/1/3 7/1/3 8/1/3 1/1/3 
f 1/1/4 8/1/4 9/1/4 2/1/4 
f 6/1/5 5/1/5 10/1/5 11/1/5 
f 11/1/6 10/1/6 12/1/6 13/1/6 
f 11/1/7 13/1/7 14/1/7 15/1/7 
f 11/1/8 15/1/8 7/1/8 6/1/8 
f 16/1/9 13/1/9 12/1/9 17/1/9 
f 16/1/10 17/1/10 18/1/10 19/1/10 
f 16/1/11 19/1/11 20/1/11 21/1/11 
f 16/1/12 21/1/12 14/1/12 13/1/12 
f 22/1/13 19/1/13 18/1/13 23/1/13 
f 23/1/14 3/1/14 2/1/14 22/1/14 
f 22/1/15 2/1/15 9/1/15 24/1/15 
f 22/1/16 24/1/16 20/1/16 19/1/16 
f 25/1/17 24/1/17 9/1/17 8/1/17 
f 25/1/18 8/1/18 7/1/18 15/1/18 
f 25/1/19 15/1/19 14/1/19 21/1/19 
f 25/1/20 21/1/20 20/1/20 24/1/20 
f 23/1/21 18/1/21 17/1/21 26/1/21 
f 26/1/22 17/1/22 12/1/22 10/1/22 
f 26/1/23 10/1/23 5/1/23 4/1/23 
f 26/1/24 4/1/24 3/1/24 23/1/24 
# 24 polygons

#
# object Cube_Cube_002
#

v  -0.3885 0.1595 -0.1218
v  -0.3123 -0.1828 -0.2581
v  -0.3945 -0.1709 0.2146
v  -0.5507 0.0265 0.5250
v  -0.3062 0.3339 0.3560
v  -0.2254 0.3142 -0.1189
v  -0.0335 0.4012 -0.3128
v  -0.0986 0.2844 -0.4750
v  -0.1137 -0.0573 -0.4412
v  -0.0439 0.3650 0.3947
v  0.1144 0.5156 0.0892
v  0.1863 0.1956 0.3695
v  0.3785 0.3219 0.2039
v  0.3933 0.3171 -0.0860
v  0.2436 0.5371 -0.2352
v  0.4007 -0.1193 0.1367
v  0.1707 -0.1491 0.4025
v  0.0940 -0.3321 0.2217
v  0.2412 -0.4629 -0.0159
v  0.2912 -0.2667 -0.2495
v  0.4493 0.0098 -0.2139
v  -0.0506 -0.4278 -0.1750
v  -0.1586 -0.2906 0.2111
v  0.1071 -0.2430 -0.4537
v  0.2226 0.1784 -0.4458
v  -0.1945 -0.0470 0.4863
# 26 vertices

vn -0.9244 -0.2874 -0.2509
vn -0.6591 0.7457 -0.0974
vn -0.5320 0.8036 -0.2669
vn -0.7084 0.0424 -0.7046
vn -0.2854 0.9578 0.0347
vn 0.3005 0.7363 0.6062
vn 0.5267 0.8355 0.1566
vn -0.3451 0.9354 -0.0775
vn 0.6792 -0.0312 0.7333
vn 0.4875 -0.6988 0.5235
vn 0.8335 -0.5448 -0.0927
vn 0.9871 0.1001 0.1252
vn -0.1707 -0.9508 0.2584
vn -0.4764 -0.8792 0.0079
vn -0.3476 -0.6606 -0.6654
vn 0.2183 -0.8731 -0.4359
vn 0.0102 -0.0435 -0.9990
vn 0.0920 0.6746 -0.7325
vn 0.7630 0.3780 -0.5243
vn 0.6128 -0.2697 -0.7428
vn -0.0699 -0.7867 0.6134
vn 0.2037 0.1330 0.9700
vn 0.0198 0.3900 0.9206
vn -0.1778 -0.8640 0.4710
# 24 vertex normals

vt 0.0000 0.0000 0.0000
# 1 texture coords

o Cube_Cube_002
g Cube_Cube_002
usemtl stone2_stone_Stein
s 1
f 27/2/25 28/2/25 29/2/25 30/2/25 
f 27/2/26 30/2/26 31/2/26 32/2/26 
f 32/2/27 33/2/27 34/2/27 27/2/27 
f 27/2/28 34/2/28 35/2/28 28/2/28 
f 32/2/29 31/2/29 36/2/29 37/2/29 
f 37/2/30 36/2/30 38/2/30 39/2/30 
f 37/2/31 39/2/31 40/2/31 41/2/31 
f 37/2/32 41/2/32 33/2/32 32/2/32 
f 42/2/33 39/2/33 38/2/33 43/2/33 
f 42/2/34 43/2/34 44/2/34 45/2/34 
f 42/2/35 45/2/35 46/2/35 47/2/35 
f 42/2/36 47/2/36 40/2/36 39/2/36 
f 48/2/37 45/2/37 44/2/37 49/2/37 
f 49/2/38 29/2/38 28/2/38 48/2/38 
f 48/2/39 28/2/39 35/2/39 50/2/39 
f 48/2/40 50/2/40 46/2/40 45/2/40 
f 51/2/41 50/2/41 35/2/41 34/2/41 
f 51/2/42 34/2/42 33/2/42 41/2/42 
f 51/2/43 41/2/43 40/2/43 47/2/43 
f 51/2/44 47/2/44 46/2/44 50/2/44 
f 49/2/45 44/2/45 43/2/45 52/2/45 
f 52/2/46 43/2/46 38/2/46 36/2/46 
f 52/2/47 36/2/47 31/2/47 30/2/47 
f 52/2/48 30/2/48 29/2/48 49/2/48 
# 24 polygons

