# File produced by Open Asset Import Library (http://www.assimp.sf.net)
# (assimp v3.1.187496374)

mtllib crystal.mtl

# 63 vertex positions
v  0.210377 0.804052 0.238339
v  0.193476 0.935178 0.274915
v  0.0561763 0.536398 0.36656
v  0.334384 1.20793 0.159368
v  0.285211 0.623878 -0.021158
v  0.247274 0.759197 0.167576
v  0.146868 0.418095 0.267172
v  0.264337 0.722662 0.112404
v  0.297509 0.798084 0.0600287
v  0.300916 1.10316 -0.0895317
v  0.374449 2.1035 0.0728829
v  0.281164 0.823393 0.142498
v  0.162995 -0.307271 -0.0816435
v  0.217814 0.0397249 -0.166167
v  0.300651 -0.147536 -0.104984
v  0.282286 -0.498811 -0.00917706
v  0.0868029 -0.134226 -0.180771
v  0.323707 0.222508 -0.144573
v  0.0446458 -0.0965718 0.352609
v  0.227623 0.117039 0.159886
v  0.0862448 -0.649626 0.0265049
v  0.0193222 -0.591197 0.266216
v  0.425472 -0.0957593 -0.0351657
v  0.259438 -0.336665 0.17995
v  -0.156483 -0.344617 0.494953
v  -0.314554 -0.16558 0.569457
v  -0.284247 -0.459567 0.432456
v  -0.180168 0.0323555 0.580542
v  -0.222237 0.459816 0.584194
v  -0.404852 0.19672 0.64592
v  -0.427294 -0.0929327 0.526493
v  -0.0988009 0.98248 0.48396
v  -0.0767364 1.57661 0.410948
v  0.0817456 1.37406 0.285264
v  -0.0189438 1.86664 0.260117
v  0.154858 1.13922 0.364324
v  -0.158622 -0.626696 0.178041
v  -0.0293527 -0.37289 0.0020207
v  -0.214953 -0.357706 0.0995267
v  -0.12505 -0.0975435 -0.0134812
v  0.0246568 0.295803 -0.0625555
v  -0.024342 0.282987 -0.0323213
v  -0.0558053 0.705311 0.0927184
v  -0.301469 1.11992 0.0944563
v  -0.410009 -0.276224 0.314435
v  -0.23075 0.79959 0.345896
v  -0.27706 -0.1102 0.0782362
v  0.321676 0.954067 -0.172382
v  -0.111795 2.34874 0.375648
v  -0.144614 2.04241 0.415483
v  -0.18509 1.49812 0.297736
v  -0.198347 1.41158 0.516052
v  0.114208 1.37601 0.0496662
v  -0.201999 0.796233 0.460623
v  -0.278724 1.22672 0.525394
v  0.336421 1.87766 0.156232
v  0.13845 1.81989 -0.186015
v  0.107579 0.671365 -0.146314
v  0.127088 0.315903 -0.192996
v  0.222765 0.374078 -0.18507
v  0.161412 1.25978 -0.198732
v  0.262142 0.7365 -0.184676
v  0.149443 0.566765 -0.178813

# 0 UV coordinates

# 134 vertex normals
vn 0.209264 -0.14411 0.131105
vn 0.207029 -0.145472 0.133325
vn 0.211491 -0.142741 0.128879
vn 0.36467 -0.22029 -0.134045
vn 0.365598 -0.209959 -0.130626
vn 0.36358 -0.230525 -0.137405
vn 0.00192575 -0.577938 0.117209
vn 0.40623 -0.0520144 -0.268635
vn 0.405886 -0.0512525 -0.272336
vn 0.405478 -0.0504824 -0.275994
vn 0.362231 -0.253073 -0.150614
vn 0.267818 -0.226049 -0.370047
vn 0.266987 -0.221635 -0.371354
vn 0.268625 -0.230444 -0.368707
vn 0.320521 -0.213554 -0.356696
vn 0.32561 -0.0977166 -0.380434
vn 0.221188 -0.0440662 0.127137
vn 0.345475 0.0927851 -0.049998
vn 0.174877 -0.101551 0.171307
vn 0.17235 -0.10673 0.173283
vn 0.177386 -0.0963611 0.169313
vn 0.137803 -0.571493 -0.0147849
vn 0.24375 -0.277437 -0.357139
vn 0.241782 0.201526 0.0836449
vn 0.342875 -0.0949454 -0.371801
vn 0.387465 0.150904 -0.300152
vn 0.153559 0.123383 0.189389
vn -0.0162506 -0.235793 0.298887
vn 0.335818 -0.186855 -0.355807
vn 0.221946 0.124831 0.119687
vn 0.17296 -0.502978 0.0243808
vn 0.321898 -0.328062 -0.0953981
vn 0.16752 -0.233774 0.157887
vn -0.220115 -0.361359 0.325248
vn -0.110795 -0.505564 0.230091
vn 0.182314 -0.0446548 0.167732
vn 0.0804395 0.0807972 0.254645
vn -0.149879 0.0251279 0.381546
vn 0.145747 -0.187202 0.187718
vn -0.323359 -0.224894 0.351106
vn -0.169223 -0.222323 0.364666
vn -0.196082 -0.175774 0.378904
vn 0.0892154 0.00933478 0.250524
vn 0.217047 0.264399 0.0971837
vn -0.149682 0.365948 0.316882
vn -0.0240596 -0.618115 0.0553217
vn 0.117646 -0.255619 -0.342048
vn 0.0205461 -0.394776 -0.254051
vn -0.0191095 -0.365157 -0.241374
vn -0.076092 0.192127 -0.245184
vn 0.122719 -0.475939 -0.253867
vn 0.0301616 -0.274758 -0.297935
vn -0.102434 -0.34789 -0.184995
vn -0.115476 -0.573236 0.157315
vn -0.0209954 0.14808 -0.290276
vn -0.0347512 0.274012 -0.258305
vn -0.387435 0.107178 0.319313
vn 0.241792 0.467602 -0.0538102
vn -0.228248 -0.325939 -0.0624917
vn 0.011879 -0.263192 -0.290374
vn 0.321052 0.216327 -0.355473
vn -0.339384 -0.0149594 0.0327109
vn -0.00220153 0.137217 -0.303408
vn 0.0858284 0.00533454 -0.357634
vn -0.217877 -0.397938 -0.0412582
vn -0.383097 0.180565 0.1727
vn -0.383121 0.180611 0.172837
vn -0.383073 0.18052 0.172563
vn -0.31263 -0.295339 0.326764
vn -0.275032 -0.461773 0.162394
vn -0.344239 -0.317943 0.264567
vn 0.403722 0.0613206 -0.208489
vn 0.404312 -0.0879594 -0.23557
vn 0.258588 -0.00202717 0.0845162
vn -0.402711 0.0946597 0.221433
vn -0.299599 0.0210126 -0.0298521
vn 0.0647956 0.116593 0.26344
vn 0.0652958 0.115746 0.263154
vn 0.0642952 0.11744 0.263725
vn -0.0608777 0.257443 -0.243733
vn -0.388144 -0.169699 0.284445
vn 0.0397253 0.164592 -0.323981
vn -0.267535 -0.0833215 0.395214
vn -0.346329 0.215277 0.336797
vn -0.383829 0.0464137 0.128968
vn -0.0841252 0.1562 -0.244348
vn -0.353558 0.298768 0.261979
vn 0.146626 0.102343 0.197827
vn -0.405342 0.077669 0.239722
vn -0.264986 0.28754 0.350617
vn -0.138765 -0.106286 0.373413
vn -0.344954 0.331997 0.231394
vn 0.304193 0.16405 0.00664648
vn 0.38297 0.206802 -0.198914
vn -0.253075 0.255883 0.363216
vn -0.320281 0.38397 0.167615
vn 0.323252 -0.142276 -0.0193659
vn -0.0452704 -0.100137 0.333944
vn 0.251475 -0.183725 0.0753978
vn 0.247303 -0.1879 0.079742
vn 0.243086 -0.192041 0.0840717
vn -0.366338 0.227782 0.301458
vn 0.250376 0.331714 0.0304414
vn 0.301228 -0.209689 -0.000134572
vn 0.0732179 0.224258 -0.330682
vn 0.386177 -0.157955 -0.170337
vn 0.368485 -0.00108951 -0.0892255
vn 0.233593 0.00124147 0.11416
vn 0.214451 -0.195887 0.116697
vn 0.298731 -0.33119 -0.0476776
vn -0.2698 0.0691117 -0.067868
vn -0.26975 0.0565877 -0.0687792
vn -0.269739 0.0816073 -0.0669289
vn -0.298834 0.0799745 -0.0274168
vn 0.285616 -0.0447213 -0.39608
vn 0.290568 -0.036866 -0.395677
vn 0.280544 -0.0525576 -0.396315
vn 0.297099 0.0167568 -0.395095
vn 0.300912 0.026926 -0.39402
vn 0.293146 0.0065797 -0.395985
vn 0.402476 0.104147 -0.25895
vn 0.266145 0.0489745 -0.397722
vn 0.236991 0.00819761 -0.398659
vn 0.39021 0.177407 -0.264269
vn -0.272916 0.233924 -0.0348267
vn -0.397794 0.076982 0.181918
vn 0.381264 -0.190894 -0.291253
vn 0.18408 -0.0762338 -0.388289
vn -0.403451 -0.0390448 0.200009
vn 0.134811 0.200471 -0.359358
vn 0.315892 -0.0385922 -0.389435
vn 0.313029 -0.0486866 -0.389791
vn 0.318643 -0.0284841 -0.38894
vn 0.0463599 0.124939 -0.332223

# Mesh 'default_0' with 122 faces
g default_0
usemtl crystal_blue
f  1//1 2//1 3//2
f  2//1 1//1 4//3
f  5//4 6//5 7//5
f  8//6 5//4 9//6
f  5//7 8//7 6//7
f  10//8 11//9 9//9
f  9//9 11//9 4//10
f  9//11 12//11 8//11
f  13//12 14//13 15//12
f  16//14 13//12 15//12
f  14//15 13//15 17//15
f  14//16 18//16 15//16
f  3//17 19//17 20//17
f  5//18 7//18 20//18
f  7//19 3//19 20//20
f  3//19 7//19 1//21
f  21//22 16//22 22//22
f  16//23 21//23 13//23
f  23//24 5//24 20//24
f  18//25 23//25 15//25
f  23//26 18//26 5//26
f  19//27 24//27 20//27
f  24//28 19//28 22//28
f  23//29 16//29 15//29
f  24//30 23//30 20//30
f  16//31 24//31 22//31
f  24//32 16//32 23//32
f  19//33 25//33 22//33
f  26//34 27//34 25//34
f  27//35 22//35 25//35
f  3//36 28//36 19//36
f  29//37 28//37 3//37
f  28//38 29//38 30//38
f  28//39 25//39 19//39
f  26//40 30//40 31//40
f  28//41 26//41 25//41
f  26//42 28//42 30//42
f  29//43 3//43 32//43
f  33//44 34//44 35//44
f  32//45 36//45 34//45
f  22//46 37//46 21//46
f  21//47 38//47 13//47
f  37//48 39//48 38//48
f  21//49 37//49 38//49
f  17//50 40//50 41//50
f  13//51 38//51 17//51
f  38//52 39//52 40//52
f  17//53 38//53 40//53
f  27//54 37//54 22//54
f  41//55 40//55 42//55
f  42//56 43//56 41//56
f  44//57 45//57 46//57
f  46//58 43//58 44//58
f  39//59 45//59 47//59
f  47//60 40//60 39//60
f  44//61 43//61 42//61
f  47//62 45//62 44//62
f  42//63 40//63 47//63
f  47//64 44//64 42//64
f  39//65 37//65 45//65
f  46//66 45//67 31//66
f  46//66 31//66 30//68
f  27//69 26//69 31//69
f  45//70 37//70 27//70
f  45//71 27//71 31//71
f  48//72 10//72 9//72
f  5//73 48//73 9//73
f  49//74 50//74 35//74
f  50//75 49//75 51//75
f  51//76 43//76 46//76
f  52//77 32//78 33//77
f  33//77 50//79 52//77
f  35//80 53//80 51//80
f  54//81 55//81 46//81
f  49//82 35//82 51//82
f  54//83 32//83 52//83
f  54//84 29//84 32//84
f  46//85 55//85 51//85
f  51//86 53//86 43//86
f  46//87 30//87 54//87
f  32//88 34//88 33//88
f  52//89 50//89 51//89
f  30//90 29//90 54//90
f  52//91 55//91 54//91
f  51//92 55//92 52//92
f  33//93 35//93 50//93
f  35//94 34//94 53//94
f  34//95 36//95 56//95
f  56//96 53//96 34//96
f  1//97 7//97 6//97
f  36//98 32//98 3//98
f  3//99 2//100 36//100
f  4//101 36//100 2//100
f  53//102 56//102 11//102
f  53//103 10//103 57//103
f  4//104 1//104 6//104
f  10//105 53//105 11//105
f  4//106 12//106 9//106
f  4//107 11//107 56//107
f  56//108 36//108 4//108
f  6//109 12//109 4//109
f  8//110 12//110 6//110
f  41//111 58//112 59//111
f  59//111 17//113 41//111
f  58//114 41//114 43//114
f  14//115 17//116 59//115
f  59//115 60//117 14//115
f  48//118 61//118 57//119
f  62//120 61//118 48//118
f  18//121 62//121 5//121
f  63//122 60//122 59//122
f  62//123 60//123 63//123
f  57//124 10//124 48//124
f  58//125 43//125 53//125
f  58//126 53//126 61//126
f  48//127 5//127 62//127
f  58//128 61//128 62//128
f  61//129 53//129 57//129
f  62//130 63//130 58//130
f  60//131 18//131 14//132
f  62//133 18//131 60//131
f  59//134 58//134 63//134

